<svg width="185" height="182" viewBox="0 0 185 182" fill="none" xmlns="http://www.w3.org/2000/svg">
<path d="M87.1565 240.066C83.3762 239.017 80.941 235.392 81.044 231.47C81.3718 218.971 79.2377 204.989 74.6409 189.527C69.2528 170.997 59.3849 152.457 45.0383 133.905C32.5982 117.633 19.1071 105.146 4.5647 96.4451C1.1203 94.3849 -0.682154 90.3227 0.391741 86.4554C1.4446 82.6638 4.96821 80.1218 8.90314 80.0931C25.5635 79.9722 42.4212 76.946 59.4762 71.0149C79.0919 64.1353 96.6382 54.2157 112.115 41.2564C125.834 29.693 136.451 17.437 143.965 4.48859C145.934 1.09645 149.899 -0.695399 153.678 0.354069C157.499 1.41505 159.978 5.06056 159.879 9.02547C159.655 17.9766 160.558 27.4531 162.589 37.4546C165.203 49.8347 169.492 62.2315 175.458 74.646C181.689 86.9098 189.222 98.5266 198.054 109.495C209.628 123.712 222.284 134.957 236.026 143.23C239.397 145.259 241.14 149.246 240.087 153.037C239.019 156.885 235.382 159.407 231.389 159.394C221.232 159.361 210.358 160.836 198.77 163.819C184.736 167.542 171.16 172.849 158.04 179.74C144.98 186.422 133.646 194.145 124.041 202.907C112.106 213.809 103.036 224.783 96.8305 235.832C94.9054 239.259 90.9426 241.118 87.1565 240.066Z" fill="url(#paint0_linear_554_16104)" fill-opacity="0.7"/>
<defs>
<linearGradient id="paint0_linear_554_16104" x1="60.1981" y1="-1.07623" x2="154.065" y2="225.727" gradientUnits="userSpaceOnUse">
<stop stop-color="#FFD13B"/>
<stop offset="1" stop-color="#FFFEF1"/>
</linearGradient>
</defs>
</svg>
