<svg width="25" height="24" viewBox="0 0 25 24" fill="none" xmlns="http://www.w3.org/2000/svg">
<path d="M23.0005 12.2326C23.0005 11.3693 22.9291 10.7393 22.7744 10.0859H12.7148V13.9826H18.6196C18.5006 14.9509 17.8577 16.4093 16.4291 17.3892L16.4091 17.5197L19.5897 19.9344L19.8101 19.9559C21.8338 18.1242 23.0005 15.4292 23.0005 12.2326Z" fill="#4285F4"/>
<path d="M12.712 22.4996C15.6048 22.4996 18.0334 21.5662 19.8072 19.9562L16.4263 17.3895C15.5215 18.0078 14.3072 18.4395 12.712 18.4395C9.87874 18.4395 7.474 16.6079 6.61678 14.0762L6.49113 14.0866L3.18388 16.595L3.14062 16.7128C4.9025 20.1428 8.52155 22.4996 12.712 22.4996Z" fill="#34A853"/>
<path d="M6.619 14.0775C6.39281 13.4241 6.26191 12.7241 6.26191 12.0008C6.26191 11.2774 6.39281 10.5774 6.6071 9.9241L6.60111 9.78496L3.25239 7.23633L3.14283 7.2874C2.41667 8.71075 2 10.3091 2 12.0008C2 13.6924 2.41667 15.2907 3.14283 16.7141L6.619 14.0775Z" fill="#FBBC05"/>
<path d="M12.7121 5.55997C14.724 5.55997 16.0811 6.41163 16.8549 7.12335L19.8787 4.23C18.0216 2.53834 15.6049 1.5 12.7121 1.5C8.52158 1.5 4.90251 3.85665 3.14062 7.28662L6.6049 9.92332C7.47403 7.39166 9.87878 5.55997 12.7121 5.55997Z" fill="#EB4335"/>
</svg>
