<svg class="stroke-2 stroke-black" width="26" height="26" viewBox="0 0 26 26" fill="none" xmlns="http://www.w3.org/2000/svg">
<path d="M13.0013 23.8346C14.4242 23.8364 15.8335 23.557 17.148 23.0124C18.4626 22.4679 19.6567 21.669 20.6616 20.6616C21.669 19.6567 22.4679 18.4626 23.0124 17.148C23.557 15.8335 23.8364 14.4242 23.8346 13.0013C23.8364 11.5784 23.557 10.1692 23.0124 8.85458C22.4679 7.53998 21.669 6.34595 20.6616 5.34106C19.6567 4.33365 18.4626 3.53472 17.148 2.99018C15.8335 2.44564 14.4242 2.16622 13.0013 2.16798C11.5784 2.16622 10.1692 2.44564 8.85458 2.99018C7.53998 3.53472 6.34595 4.33365 5.34106 5.34106C4.33365 6.34595 3.53472 7.53998 2.99018 8.85458C2.44564 10.1692 2.16622 11.5784 2.16798 13.0013C2.16622 14.4242 2.44564 15.8335 2.99018 17.148C3.53472 18.4626 4.33365 19.6567 5.34106 20.6616C6.34595 21.669 7.53998 22.4679 8.85458 23.0124C10.1692 23.557 11.5784 23.8364 13.0013 23.8346Z" stroke-linejoin="round"/>
<path d="M8.66797 13L11.918 16.25L18.418 9.75" stroke-linecap="round" stroke-linejoin="round"/>
</svg>
