<svg width="26" height="26" viewBox="0 0 26 26" fill="none" xmlns="http://www.w3.org/2000/svg">
<path d="M7.58464 17.3333C7.27769 17.3333 7.02058 17.2293 6.81331 17.0213C6.60603 16.8133 6.50203 16.5562 6.50131 16.25C6.50058 15.9438 6.60458 15.6867 6.81331 15.4787C7.02203 15.2707 7.27914 15.1667 7.58464 15.1667H9.75131C10.0583 15.1667 10.3157 15.2707 10.5237 15.4787C10.7317 15.6867 10.8354 15.9438 10.8346 16.25C10.8339 16.5562 10.7299 16.8137 10.5226 17.0224C10.3154 17.2311 10.0583 17.3348 9.75131 17.3333H7.58464ZM7.58464 13C7.27769 13 7.02058 12.896 6.81331 12.688C6.60603 12.48 6.50203 12.2229 6.50131 11.9167C6.50058 11.6104 6.60458 11.3533 6.81331 11.1453C7.02203 10.9373 7.27914 10.8333 7.58464 10.8333H19.5013C19.8082 10.8333 20.0657 10.9373 20.2737 11.1453C20.4817 11.3533 20.5854 11.6104 20.5846 11.9167C20.5839 12.2229 20.4799 12.4804 20.2726 12.6891C20.0654 12.8978 19.8082 13.0014 19.5013 13H7.58464ZM7.58464 8.66667C7.27769 8.66667 7.02058 8.56267 6.81331 8.35467C6.60603 8.14667 6.50203 7.88956 6.50131 7.58333C6.50058 7.27711 6.60458 7.02 6.81331 6.812C7.02203 6.604 7.27914 6.5 7.58464 6.5H19.5013C19.8082 6.5 20.0657 6.604 20.2737 6.812C20.4817 7.02 20.5854 7.27711 20.5846 7.58333C20.5839 7.88956 20.4799 8.14703 20.2726 8.35575C20.0654 8.56447 19.8082 8.66811 19.5013 8.66667H7.58464ZM17.2805 21.2063C17.136 21.2063 17.0006 21.1839 16.8742 21.1391C16.7478 21.0943 16.6305 21.0174 16.5221 20.9083L13.4346 17.8208C13.218 17.6042 13.114 17.3471 13.1226 17.0495C13.1313 16.7519 13.2443 16.4945 13.4617 16.2771C13.6791 16.0597 13.9366 15.9514 14.2341 15.9521C14.5317 15.9528 14.7888 16.0611 15.0055 16.2771L17.2805 18.5792L22.6159 13.2438C22.8326 13.0271 23.09 12.9231 23.3883 12.9317C23.6866 12.9404 23.9437 13.0534 24.1596 13.2708C24.3582 13.4875 24.4622 13.7403 24.4716 14.0292C24.481 14.3181 24.377 14.5708 24.1596 14.7875L18.0388 20.9083C17.9305 21.0167 17.8131 21.0936 17.6867 21.1391C17.5603 21.1846 17.4249 21.207 17.2805 21.2063ZM3.25131 8.66667C2.94436 8.66667 2.68725 8.56267 2.47997 8.35467C2.27269 8.14667 2.16869 7.88956 2.16797 7.58333C2.16725 7.27711 2.27125 7.02 2.47997 6.812C2.68869 6.604 2.94581 6.5 3.25131 6.5C3.55681 6.5 3.81428 6.604 4.02372 6.812C4.23317 7.02 4.33681 7.27711 4.33464 7.58333C4.33247 7.88956 4.22847 8.14703 4.02264 8.35575C3.81681 8.56447 3.55969 8.66811 3.25131 8.66667ZM3.25131 13C2.94436 13 2.68725 12.896 2.47997 12.688C2.27269 12.48 2.16869 12.2229 2.16797 11.9167C2.16725 11.6104 2.27125 11.3533 2.47997 11.1453C2.68869 10.9373 2.94581 10.8333 3.25131 10.8333C3.55681 10.8333 3.81428 10.9373 4.02372 11.1453C4.23317 11.3533 4.33681 11.6104 4.33464 11.9167C4.33247 12.2229 4.22847 12.4804 4.02264 12.6891C3.81681 12.8978 3.55969 13.0014 3.25131 13ZM3.25131 17.3333C2.94436 17.3333 2.68725 17.2293 2.47997 17.0213C2.27269 16.8133 2.16869 16.5562 2.16797 16.25C2.16725 15.9438 2.27125 15.6867 2.47997 15.4787C2.68869 15.2707 2.94581 15.1667 3.25131 15.1667C3.55681 15.1667 3.81428 15.2707 4.02372 15.4787C4.23317 15.6867 4.33681 15.9438 4.33464 16.25C4.33247 16.5562 4.22847 16.8137 4.02264 17.0224C3.81681 17.2311 3.55969 17.3348 3.25131 17.3333Z"/>
</svg>
