<svg class="stroke-[1.5] stroke-black size-7" width="24" height="24" viewBox="0 0 24 24" fill="none" xmlns="http://www.w3.org/2000/svg">
<path d="M12.002 9.00006V13.0001M4.38086 15.1999C3.47143 16.775 3.01684 17.5629 3.08477 18.2092C3.14402 18.7729 3.43987 19.2851 3.89844 19.6182C4.42399 20.0001 5.33286 20.0001 7.15049 20.0001H16.8534C18.671 20.0001 19.5798 20.0001 20.1053 19.6182C20.5639 19.2851 20.8599 18.7729 20.9191 18.2092C20.9871 17.5629 20.5326 16.775 19.6232 15.1999L14.7734 6.79986C13.864 5.22468 13.4091 4.43722 12.8154 4.17291C12.2976 3.94236 11.706 3.94236 11.1881 4.17291C10.5947 4.43711 10.1401 5.22458 9.23142 6.79845L4.38086 15.1999ZM12.0527 16.0001V16.1001L11.9521 16.1003V16.0001H12.0527Z" stroke-linecap="round" stroke-linejoin="round"/>
</svg>
