<svg width="26" height="26" viewBox="0 0 26 26" fill="none" xmlns="http://www.w3.org/2000/svg">
<path d="M7.58203 11.918H9.7487V14.0846H7.58203V11.918ZM7.58203 16.2513H9.7487V18.418H7.58203V16.2513ZM11.9154 11.918H14.082V14.0846H11.9154V11.918ZM11.9154 16.2513H14.082V18.418H11.9154V16.2513ZM16.2487 11.918H18.4154V14.0846H16.2487V11.918ZM16.2487 16.2513H18.4154V18.418H16.2487V16.2513Z" fill="white"/>
<path d="M5.41667 23.8346H20.5833C21.7783 23.8346 22.75 22.8629 22.75 21.668V6.5013C22.75 5.30639 21.7783 4.33464 20.5833 4.33464H18.4167V2.16797H16.25V4.33464H9.75V2.16797H7.58333V4.33464H5.41667C4.22175 4.33464 3.25 5.30639 3.25 6.5013V21.668C3.25 22.8629 4.22175 23.8346 5.41667 23.8346ZM20.5833 8.66797L20.5844 21.668H5.41667V8.66797H20.5833Z" fill="white"/>
</svg>
